<svg version="1.1" id="Layer_1" xmlns="http://www.w3.org/2000/svg" xmlns:xlink="http://www.w3.org/1999/xlink" x="0px" y="0px"
	 width="100%" viewBox="0 0 496 496" enable-background="new 0 0 496 496" xml:space="preserve">
<path fill="#000000" opacity="1.000000" stroke="none" 
	d="
M293.017944,217.168564 
	C297.735504,218.466980 301.966339,216.649139 306.342468,216.773438 
	C312.934540,216.960678 314.227509,217.338150 316.746277,223.660309 
	C317.960846,226.708862 318.488678,230.054352 320.795227,233.297714 
	C323.300079,229.278992 324.376312,225.106644 325.574890,221.084305 
	C326.855774,216.785782 329.798462,215.935211 333.253418,217.101166 
	C336.844391,218.312988 336.794647,221.242172 335.478851,224.493134 
	C331.544800,234.213120 328.108826,244.147202 323.857513,253.722031 
	C320.815460,260.573364 312.769592,262.311768 306.992920,258.338867 
	C304.792145,256.825287 305.147308,255.201904 305.597290,253.152206 
	C306.101929,250.853241 307.514160,251.044403 309.344543,251.094376 
	C314.975861,251.248169 316.718933,248.901062 314.824432,243.695831 
	C312.387695,237.000732 309.751404,230.378281 307.044281,223.315445 
	C305.905090,224.990067 305.155121,226.414474 303.145020,226.229614 
	C297.874573,225.744919 296.642151,229.314850 296.368073,233.476456 
	C296.160400,236.629654 296.354858,239.807266 296.274048,242.971542 
	C296.212921,245.366196 296.904846,248.323776 292.889343,248.237732 
	C289.208527,248.158859 286.076294,246.992661 285.931702,242.836365 
	C285.676971,235.513504 285.841156,228.175049 285.878662,220.843369 
	C285.905121,215.673874 289.552277,216.802109 293.017944,217.168564 
z"/>
<path fill="#000000" opacity="1.000000" stroke="none" 
	d="
M203.599335,238.546936 
	C201.610962,245.376617 198.326828,248.059845 191.712875,248.217163 
	C187.058273,248.327866 182.391205,248.286682 177.740189,248.078751 
	C172.413162,247.840622 170.786438,246.015442 170.773026,240.654526 
	C170.750122,231.503510 170.895584,222.349899 170.713730,213.202469 
	C170.634857,209.235504 171.832214,207.329483 176.095306,207.632935 
	C179.903030,207.903992 183.747360,207.608032 187.571213,207.715912 
	C197.726181,208.002411 202.673447,215.254059 199.043198,224.712997 
	C198.330444,226.570129 199.111862,227.507980 200.063400,228.662643 
	C202.338669,231.423645 204.085938,234.386185 203.599335,238.546936 
M182.289688,239.155350 
	C185.066238,239.928375 187.811295,240.062454 190.436005,238.632034 
	C192.468430,237.524399 192.977966,235.687164 192.618790,233.561859 
	C192.262955,231.456421 190.566513,231.272156 188.868683,231.075577 
	C181.845901,230.262466 180.681641,231.478394 182.289688,239.155350 
M187.700165,222.379623 
	C189.802109,221.265717 191.623062,219.598969 189.953171,217.306595 
	C188.416977,215.197800 185.453247,215.727203 183.434433,216.468842 
	C180.408829,217.580322 181.957718,220.154663 182.279327,222.564453 
	C184.036987,222.564453 185.509201,222.564453 187.700165,222.379623 
z"/>
<path fill="#000000" opacity="1.000000" stroke="none" 
	d="
M176.314041,252.743134 
	C181.276138,252.711945 185.776886,252.549652 190.262344,252.742462 
	C199.969193,253.159729 204.857056,260.492249 201.242798,269.323853 
	C200.419479,271.335693 201.136444,272.419006 202.246063,273.724030 
	C205.788315,277.890045 207.033295,282.457489 204.342896,287.536743 
	C201.791397,292.353699 197.144989,293.053467 192.381744,293.203888 
	C188.225357,293.335175 184.057022,293.310150 179.900650,293.164001 
	C174.912384,292.988586 172.962418,291.018188 172.937988,286.196503 
	C172.890732,276.876038 172.891113,267.554688 172.975693,258.234650 
	C172.995728,256.026520 172.471497,253.314255 176.314041,252.743134 
M194.223816,277.172516 
	C191.524368,275.211792 188.489746,276.177582 185.589111,276.274567 
	C183.667648,276.338806 183.264374,277.931305 183.301559,279.506409 
	C183.342270,281.230591 182.631149,283.248230 184.761887,284.354095 
	C189.626633,286.878906 194.847198,283.445374 194.223816,277.172516 
M185.130127,261.326447 
	C182.507263,262.675201 182.625244,265.151001 184.026688,266.739594 
	C185.666275,268.598145 188.391647,267.902985 190.582275,267.153503 
	C192.112747,266.629883 192.886124,265.158020 192.605530,263.515381 
	C192.060623,260.325409 189.419968,261.335785 187.423843,261.121063 
	C186.934601,261.068390 186.429199,261.165894 185.130127,261.326447 
z"/>
<path fill="#000000" opacity="1.000000" stroke="none" 
	d="
M264.795807,226.264130 
	C263.018921,227.043625 261.745392,228.420639 259.890137,227.680756 
	C257.590179,226.763550 255.814102,225.164047 255.300354,222.772003 
	C254.755661,220.236023 257.099731,219.394379 258.779022,218.544647 
	C263.952454,215.926895 269.482544,215.423889 274.569031,218.234436 
	C279.781036,221.114319 281.229858,226.158386 280.455048,231.965988 
	C279.962402,235.658585 280.117859,239.282471 282.919434,242.261047 
	C284.142273,243.561157 284.706940,245.209869 283.774628,246.834595 
	C282.651886,248.791168 280.300720,248.793381 278.878967,248.066986 
	C275.068848,246.120270 271.785004,247.119507 268.079163,248.382553 
	C263.640015,249.895554 257.028473,246.530991 254.919815,242.397354 
	C251.960327,236.595779 255.041885,230.941025 262.253479,228.982880 
	C264.594727,228.347122 267.261688,228.707657 269.469543,226.452530 
	C268.007538,225.006424 266.571136,225.437500 264.795807,226.264130 
M269.821808,237.737366 
	C270.234924,236.776520 270.544464,235.654861 269.075928,235.571106 
	C267.404480,235.475800 265.867920,236.096970 264.984283,237.707077 
	C264.462036,238.658752 264.346893,239.754623 265.469360,240.195160 
	C267.352203,240.934143 268.440155,239.495926 269.821808,237.737366 
z"/>
<path fill="#000000" opacity="1.000000" stroke="none" 
	d="
M258.882477,288.153076 
	C259.712769,292.684082 257.962219,294.494537 253.968445,292.827728 
	C250.538879,291.396332 247.897079,291.712799 244.610825,293.121246 
	C240.088562,295.059418 232.725616,291.593262 230.551132,287.151459 
	C228.137299,282.220734 230.254333,277.173645 235.536392,274.954590 
	C238.659973,273.642303 242.401154,273.984802 245.629211,271.369598 
	C243.032150,269.523651 241.227158,270.694946 239.468887,271.795349 
	C235.816162,274.081329 233.436020,272.141663 231.663269,269.227814 
	C229.478348,265.636505 232.719452,264.416260 234.947357,263.360352 
	C245.108414,258.544464 257.490082,263.103729 256.350281,275.983978 
	C255.992615,280.025909 255.418167,284.376312 258.882477,288.153076 
M241.471817,281.956665 
	C240.457458,282.977539 239.729889,284.162201 241.228104,285.206146 
	C242.335831,285.977966 243.408905,285.085724 244.311203,284.400726 
	C245.273972,283.669800 246.078918,282.586121 245.389420,281.464111 
	C244.379791,279.821198 243.131363,281.206116 241.471817,281.956665 
z"/>
<path fill="#000000" opacity="1.000000" stroke="none" 
	d="
M224.151535,217.178589 
	C229.328384,217.341034 233.991379,217.565598 238.865051,216.880005 
	C245.725113,215.915024 250.926041,221.474304 251.214523,228.851959 
	C251.396729,233.511536 251.288239,238.183014 251.283493,242.849136 
	C251.280777,245.521088 251.686981,248.623459 247.481949,248.210693 
	C243.989868,247.867889 240.903152,246.808670 240.865768,242.428085 
	C240.831635,238.428635 240.941101,234.425079 240.791031,230.430710 
	C240.718109,228.489410 241.725266,225.510330 238.268967,225.548126 
	C235.482758,225.578598 233.516632,227.437561 233.318069,230.270248 
	C233.015686,234.584457 233.130173,238.926697 233.013336,243.255554 
	C232.951309,245.553833 233.325500,248.163300 229.754318,248.262711 
	C226.702606,248.347641 223.134109,247.546280 223.038437,244.538010 
	C222.750778,235.491364 221.434875,226.350388 224.151535,217.178589 
z"/>
<path fill="#000000" opacity="1.000000" stroke="none" 
	d="
M294.774353,261.681915 
	C302.014038,263.263519 305.619995,267.931000 305.613159,275.368500 
	C305.609161,279.688507 305.430817,284.008240 305.340118,288.328278 
	C305.289307,290.748383 305.277191,293.387146 301.838989,293.048279 
	C299.034668,292.771881 295.982666,292.087799 295.774170,288.476257 
	C295.515686,283.998596 295.698944,279.496735 295.628906,275.006287 
	C295.598694,273.069794 296.032776,270.660217 293.131531,270.414734 
	C290.732605,270.211761 289.012024,271.469757 288.141968,273.757812 
	C286.546356,277.953674 287.645386,282.336853 287.243073,286.611511 
	C286.994049,289.257568 288.668182,293.111267 283.630066,293.215942 
	C279.523590,293.301239 276.908630,290.579468 276.885040,286.001160 
	C276.850739,279.347229 276.922607,272.692749 276.887604,266.038818 
	C276.872742,263.214020 278.213562,260.856903 280.928497,261.928589 
	C285.625885,263.782806 289.898529,261.725494 294.774353,261.681915 
z"/>
<path fill="#000000" opacity="1.000000" stroke="none" 
	d="
M319.803741,284.885132 
	C321.336731,284.791229 322.544006,284.788300 323.168488,283.409973 
	C322.750824,280.968964 320.462830,281.407898 318.896912,280.839661 
	C311.610626,278.195740 307.966888,273.792603 309.144440,268.897217 
	C310.517609,263.188629 316.562286,260.310577 324.213379,261.845245 
	C326.859467,262.376007 329.253876,263.534424 331.022980,265.699554 
	C332.018463,266.917877 332.796967,268.164246 331.544586,269.690704 
	C330.444000,271.032166 329.354401,272.151489 327.334534,271.308167 
	C324.829163,270.262115 322.230835,268.961487 319.610229,271.350220 
	C320.667297,273.332031 322.443848,273.303101 323.996826,273.684845 
	C327.357391,274.510864 330.065582,276.204529 332.004150,279.167755 
	C335.801453,284.972076 333.522614,291.436493 326.703278,293.105469 
	C320.707916,294.572754 315.177582,293.034607 310.353577,289.174316 
	C308.643188,287.805634 307.585175,286.255890 309.449585,284.142090 
	C311.028076,282.352509 312.542572,281.100708 314.832916,283.198669 
	C316.087036,284.347412 317.711060,284.826019 319.803741,284.885132 
z"/>
<path fill="#000000" opacity="1.000000" stroke="none" 
	d="
M209.611725,281.933441 
	C209.613525,276.444061 209.786957,271.439484 209.566010,266.452393 
	C209.372711,262.088959 211.893539,260.804688 215.145416,262.074402 
	C217.948364,263.168884 220.069412,262.606842 222.635406,261.920380 
	C226.275955,260.946472 228.951584,262.603210 229.720917,266.298584 
	C230.220261,268.697021 229.749481,271.229736 226.398941,271.167419 
	C221.872192,271.083191 220.411148,273.708649 219.795502,277.657776 
	C219.225143,281.316528 219.376511,284.963562 219.299515,288.619934 
	C219.252335,290.859924 219.273209,293.158081 216.093597,293.149261 
	C213.045761,293.140808 210.346985,292.304535 209.731323,288.908264 
	C209.350830,286.809204 209.629349,284.590729 209.611725,281.933441 
z"/>
<path fill="#000000" opacity="1.000000" stroke="none" 
	d="
M272.131226,280.981873 
	C272.117889,283.808899 272.101746,286.142120 272.093750,288.475311 
	C272.085205,290.982269 271.803619,293.366272 268.452423,293.170776 
	C265.358459,292.990295 262.026306,292.273407 261.868195,288.562134 
	C261.535065,280.744019 261.751038,272.902039 261.768768,265.069916 
	C261.772552,263.396912 262.458801,262.096832 264.273926,261.885406 
	C266.431458,261.634155 268.599274,261.432404 270.228241,263.448395 
	C271.671234,265.234192 272.183167,267.238373 272.149597,269.488831 
	C272.094910,273.154510 272.133057,276.821564 272.131226,280.981873 
z"/>
<path fill="#000000" opacity="1.000000" stroke="none" 
	d="
M208.585938,246.302658 
	C206.095306,244.274841 206.916794,241.795166 206.880844,239.566223 
	C206.789719,233.918915 206.872055,228.268768 206.886169,222.619766 
	C206.893372,219.736710 206.613297,216.793335 210.963882,216.777283 
	C214.942963,216.762589 216.884888,218.993927 217.132431,222.473297 
	C217.473495,227.267487 217.243912,232.102417 217.254303,236.919907 
	C217.257889,238.581345 217.245148,240.242828 217.244919,241.904282 
	C217.243881,249.026505 215.334106,250.085281 208.585938,246.302658 
z"/>
<path fill="#000000" opacity="1.000000" stroke="none" 
	d="
M266.538269,260.874420 
	C265.720490,260.531525 265.254913,260.344666 264.843323,260.075287 
	C262.366516,258.454010 260.313538,256.566559 261.475983,253.208221 
	C262.310760,250.796463 264.335144,249.958893 266.616791,250.332733 
	C269.864319,250.864792 272.142578,253.215286 272.575806,256.195648 
	C273.128448,259.997620 270.510742,261.387177 266.538269,260.874420 
z"/>
<path fill="#000000" opacity="1.000000" stroke="none" 
	d="
M216.173798,215.336426 
	C214.598282,216.211304 213.329559,216.193756 212.010620,215.765381 
	C207.923325,214.437881 205.588089,211.041687 206.940842,208.047852 
	C208.344543,204.941208 211.062515,204.936264 213.681488,206.006622 
	C217.646606,207.627121 218.700058,211.392075 216.173798,215.336426 
z"/>
</svg>